<svg width="11" height="20" fill="none" xmlns="http://www.w3.org/2000/svg">
<path fill="#E5E5E5" d="M0 0h11v20H0z"/>
<path fill="#fff" d="M-972-2151H628V780H-972z"/>
<path fill="#F5F4FA" d="M-972-552H628v708H-972z"/>
<g filter="url(#a)"><path d="M-157-366h270V58a4 4 0 0 1-4 4h-262a4 4 0 0 1-4-4v-424Z" fill="#fff"/></g>
<path d="M27 10a21.931 21.931 0 0 1-6.444 15.556A21.931 21.931 0 0 1 5 32a21.931 21.931 0 0 1-15.556-6.444A21.93 21.93 0 0 1-17 10a21.93 21.93 0 0 1 6.444-15.556A21.931 21.931 0 0 1 5-12a21.931 21.931 0 0 1 15.556 6.444A21.931 21.931 0 0 1 27 10Z" fill="#fff"/>
<g clip-path="url(#b)"><path d="M8.33 3.32h1.827V.14A23.579 23.579 0 0 0 7.497 0C4.864 0 3.06 1.656 3.06 4.7v2.8H.156v3.555H3.06V20h3.561v-8.944H9.41L9.852 7.5h-3.23V5.05c0-1.027.277-1.73 1.709-1.73Z" fill="#AFB1B8"/></g>
<defs><clipPath id="b"><path fill="#fff" transform="translate(-5)" d="M0 0h20v20H0z"/></clipPath>
<filter id="a" x="-160" y="-368" width="276" height="434" filterUnits="userSpaceOnUse" color-interpolation-filters="sRGB">
<feFlood flood-opacity="0" result="BackgroundImageFix"/>
<feColorMatrix in="SourceAlpha" values="0 0 0 0 0 0 0 0 0 0 0 0 0 0 0 0 0 0 127 0" result="hardAlpha"/>
<feOffset dy="2"/>
<feGaussianBlur stdDeviation=".5"/>
<feColorMatrix values="0 0 0 0 0 0 0 0 0 0 0 0 0 0 0 0 0 0 0.2 0"/>
<feBlend in2="BackgroundImageFix" result="effect1_dropShadow_1_293"/>
<feColorMatrix in="SourceAlpha" values="0 0 0 0 0 0 0 0 0 0 0 0 0 0 0 0 0 0 127 0" result="hardAlpha"/>
<feOffset dy="1"/><feGaussianBlur stdDeviation=".5"/>
<feColorMatrix values="0 0 0 0 0 0 0 0 0 0 0 0 0 0 0 0 0 0 0.14 0"/>
<feBlend in2="effect1_dropShadow_1_293" result="effect2_dropShadow_1_293"/>
<feColorMatrix in="SourceAlpha" values="0 0 0 0 0 0 0 0 0 0 0 0 0 0 0 0 0 0 127 0" result="hardAlpha"/>
<feOffset dy="1"/><feGaussianBlur stdDeviation="1.5"/>
<feColorMatrix values="0 0 0 0 0 0 0 0 0 0 0 0 0 0 0 0 0 0 0.12 0"/>
<feBlend in2="effect2_dropShadow_1_293" result="effect3_dropShadow_1_293"/>
<feBlend in="SourceGraphic" in2="effect3_dropShadow_1_293" result="shape"/></filter></defs></svg>