<svg width="13" height="14" fill="none" xmlns="http://www.w3.org/2000/svg"><path fill="#E5E5E5" d="M0 0h13v14H0z"/><path fill="#fff" d="M-1028-2157H572V774h-1600z"/><path fill="#F5F4FA" d="M-1028-558H572v708h-1600z"/><g filter="url(#a)"><path d="M-213-372H57V52a4 4 0 0 1-4 4h-262a4 4 0 0 1-4-4v-424Z" fill="#fff"/></g><path d="M25 4a21.93 21.93 0 0 1-6.444 15.556A21.931 21.931 0 0 1 3 26a21.931 21.931 0 0 1-15.556-6.444A21.93 21.93 0 0 1-19 4a21.93 21.93 0 0 1 6.444-15.556A21.931 21.931 0 0 1 3-18a21.931 21.931 0 0 1 15.556 6.444A21.93 21.93 0 0 1 25 4Z" fill="#fff"/><g clip-path="url(#b)"><path d="M12.995 14H13V6.663C13 3.076 12.227.312 8.033.312c-2.017 0-3.37 1.106-3.923 2.156h-.058V.647H.074v13.352h4.142V7.388c0-1.741.33-3.425 2.486-3.425 2.124 0 2.155 1.987 2.155 3.536V14h4.138Z" fill="#AFB1B8"/></g><defs><clipPath id="b"><path fill="#fff" transform="translate(-7 -6)" d="M0 0h20v20H0z"/></clipPath><filter id="a" x="-216" y="-374" width="276" height="434" filterUnits="userSpaceOnUse" color-interpolation-filters="sRGB"><feFlood flood-opacity="0" result="BackgroundImageFix"/><feColorMatrix in="SourceAlpha" values="0 0 0 0 0 0 0 0 0 0 0 0 0 0 0 0 0 0 127 0" result="hardAlpha"/><feOffset dy="2"/><feGaussianBlur stdDeviation=".5"/><feColorMatrix values="0 0 0 0 0 0 0 0 0 0 0 0 0 0 0 0 0 0 0.2 0"/><feBlend in2="BackgroundImageFix" result="effect1_dropShadow_1_293"/><feColorMatrix in="SourceAlpha" values="0 0 0 0 0 0 0 0 0 0 0 0 0 0 0 0 0 0 127 0" result="hardAlpha"/><feOffset dy="1"/><feGaussianBlur stdDeviation=".5"/><feColorMatrix values="0 0 0 0 0 0 0 0 0 0 0 0 0 0 0 0 0 0 0.14 0"/><feBlend in2="effect1_dropShadow_1_293" result="effect2_dropShadow_1_293"/><feColorMatrix in="SourceAlpha" values="0 0 0 0 0 0 0 0 0 0 0 0 0 0 0 0 0 0 127 0" result="hardAlpha"/><feOffset dy="1"/><feGaussianBlur stdDeviation="1.5"/><feColorMatrix values="0 0 0 0 0 0 0 0 0 0 0 0 0 0 0 0 0 0 0.12 0"/><feBlend in2="effect2_dropShadow_1_293" result="effect3_dropShadow_1_293"/><feBlend in="SourceGraphic" in2="effect3_dropShadow_1_293" result="shape"/></filter></defs></svg>