<svg width="5" height="14" fill="none" xmlns="http://www.w3.org/2000/svg"><path fill="#E5E5E5" d="M0 0h5v14H0z"/><path fill="#fff" d="M-1021-2157H579V774h-1600z"/><path fill="#F5F4FA" d="M-1021-558H579v708h-1600z"/><g filter="url(#a)"><path d="M-206-372H64V52a4 4 0 0 1-4 4h-262a4 4 0 0 1-4-4v-424Z" fill="#fff"/></g><path d="M32 4a21.93 21.93 0 0 1-6.444 15.556A21.931 21.931 0 0 1 10 26a21.931 21.931 0 0 1-15.556-6.444A21.931 21.931 0 0 1-12 4a21.931 21.931 0 0 1 6.444-15.556A21.931 21.931 0 0 1 10-18a21.931 21.931 0 0 1 15.556 6.444A21.93 21.93 0 0 1 32 4Z" fill="#fff"/><g clip-path="url(#b)"><path d="M.33.647h4.147V14H.33V.647Z" fill="#AFB1B8"/></g><defs><clipPath id="b"><path fill="#fff" transform="translate(0 -6)" d="M0 0h20v20H0z"/></clipPath><filter id="a" x="-209" y="-374" width="276" height="434" filterUnits="userSpaceOnUse" color-interpolation-filters="sRGB"><feFlood flood-opacity="0" result="BackgroundImageFix"/><feColorMatrix in="SourceAlpha" values="0 0 0 0 0 0 0 0 0 0 0 0 0 0 0 0 0 0 127 0" result="hardAlpha"/><feOffset dy="2"/><feGaussianBlur stdDeviation=".5"/><feColorMatrix values="0 0 0 0 0 0 0 0 0 0 0 0 0 0 0 0 0 0 0.2 0"/><feBlend in2="BackgroundImageFix" result="effect1_dropShadow_1_293"/><feColorMatrix in="SourceAlpha" values="0 0 0 0 0 0 0 0 0 0 0 0 0 0 0 0 0 0 127 0" result="hardAlpha"/><feOffset dy="1"/><feGaussianBlur stdDeviation=".5"/><feColorMatrix values="0 0 0 0 0 0 0 0 0 0 0 0 0 0 0 0 0 0 0.14 0"/><feBlend in2="effect1_dropShadow_1_293" result="effect2_dropShadow_1_293"/><feColorMatrix in="SourceAlpha" values="0 0 0 0 0 0 0 0 0 0 0 0 0 0 0 0 0 0 127 0" result="hardAlpha"/><feOffset dy="1"/><feGaussianBlur stdDeviation="1.5"/><feColorMatrix values="0 0 0 0 0 0 0 0 0 0 0 0 0 0 0 0 0 0 0.12 0"/><feBlend in2="effect2_dropShadow_1_293" result="effect3_dropShadow_1_293"/><feBlend in="SourceGraphic" in2="effect3_dropShadow_1_293" result="shape"/></filter></defs></svg>